<svg xmlns="http://www.w3.org/2000/svg" xmlns:xlink="http://www.w3.org/1999/xlink" width="500" zoomAndPan="magnify" viewBox="0 0 375 374.999991" height="500" preserveAspectRatio="xMidYMid meet" version="1.0"><defs><clipPath id="03de1b0aa8"><path d="M 0 239.363281 L 50.863281 239.363281 L 50.863281 324.136719 L 0 324.136719 Z M 0 324.136719 L 135.636719 324.136719 L 135.636719 375 L 0 375 Z M 0 324.136719 " clip-rule="nonzero"/></clipPath><clipPath id="034c0e6217"><path d="M 324.136719 239.363281 L 375 239.363281 L 375 324.136719 L 324.136719 324.136719 Z M 239.363281 324.136719 L 375 324.136719 L 375 375 L 239.363281 375 Z M 239.363281 324.136719 " clip-rule="nonzero"/></clipPath><clipPath id="6735d92bfe"><path d="M 0 0 L 135.636719 0 L 135.636719 50.863281 L 0 50.863281 Z M 0 50.863281 L 50.863281 50.863281 L 50.863281 135.636719 L 0 135.636719 Z M 0 50.863281 " clip-rule="nonzero"/></clipPath><clipPath id="819b4330da"><path d="M 239.363281 0 L 375 0 L 375 50.863281 L 239.363281 50.863281 Z M 324.136719 50.863281 L 375 50.863281 L 375 135.636719 L 324.136719 135.636719 Z M 324.136719 50.863281 " clip-rule="nonzero"/></clipPath></defs><g clip-path="url(#03de1b0aa8)"><path fill="#004800" d="M -135.636719 239.363281 L 135.636719 239.363281 L 135.636719 510.636719 L -135.636719 510.636719 Z M -135.636719 239.363281 " fill-opacity="1" fill-rule="nonzero"/></g><g clip-path="url(#034c0e6217)"><path fill="#004800" d="M 239.363281 239.363281 L 510.636719 239.363281 L 510.636719 510.636719 L 239.363281 510.636719 Z M 239.363281 239.363281 " fill-opacity="1" fill-rule="nonzero"/></g><g clip-path="url(#6735d92bfe)"><path fill="#004800" d="M -135.636719 -135.636719 L 135.636719 -135.636719 L 135.636719 135.636719 L -135.636719 135.636719 Z M -135.636719 -135.636719 " fill-opacity="1" fill-rule="nonzero"/></g><g clip-path="url(#819b4330da)"><path fill="#004800" d="M 239.363281 -135.636719 L 510.636719 -135.636719 L 510.636719 135.636719 L 239.363281 135.636719 Z M 239.363281 -135.636719 " fill-opacity="1" fill-rule="nonzero"/></g></svg>