<svg xmlns="http://www.w3.org/2000/svg" xmlns:xlink="http://www.w3.org/1999/xlink" width="500" zoomAndPan="magnify" viewBox="0 0 375 374.999991" height="500" preserveAspectRatio="xMidYMid meet" version="1.0"><path fill="#42b124" d="M 361.34375 216.828125 C 368.699219 216.828125 374.71875 210.808594 374.71875 203.449219 L 374.71875 171.105469 C 374.71875 163.746094 368.699219 157.726562 361.34375 157.726562 L 347.453125 157.726562 C 340.09375 157.726562 332.308594 151.972656 330.144531 144.9375 L 318.289062 116.164062 C 314.8125 109.683594 316.222656 100.121094 321.421875 94.921875 L 331.253906 85.089844 C 336.453125 79.886719 336.457031 71.375 331.253906 66.171875 L 308.382812 43.300781 C 303.179688 38.097656 294.667969 38.097656 289.464844 43.300781 L 279.632812 53.132812 C 274.429688 58.335938 264.863281 59.742188 258.382812 56.257812 L 229.609375 44.410156 C 222.578125 42.25 216.828125 34.457031 216.828125 27.101562 L 216.828125 13.210938 C 216.828125 5.855469 210.808594 -0.164062 203.449219 -0.164062 L 171.105469 -0.164062 C 163.746094 -0.164062 157.726562 5.855469 157.726562 13.210938 L 157.726562 27.101562 C 157.726562 34.457031 151.972656 42.25 144.945312 44.410156 L 116.167969 56.257812 C 109.6875 59.742188 100.125 58.332031 94.925781 53.128906 L 85.09375 43.296875 C 79.890625 38.09375 71.378906 38.09375 66.175781 43.296875 L 43.304688 66.167969 C 38.101562 71.371094 38.101562 79.882812 43.304688 85.085938 L 53.140625 94.917969 C 58.347656 100.121094 59.75 109.683594 56.273438 116.164062 L 44.421875 144.9375 C 42.257812 151.972656 34.46875 157.722656 27.109375 157.722656 L 13.226562 157.722656 C 5.867188 157.722656 -0.152344 163.742188 -0.152344 171.101562 L -0.152344 203.449219 C -0.152344 210.808594 5.867188 216.828125 13.226562 216.828125 L 27.109375 216.828125 C 34.46875 216.828125 42.257812 222.578125 44.421875 229.609375 L 56.277344 258.390625 C 59.757812 264.867188 58.351562 274.433594 53.148438 279.632812 L 43.308594 289.46875 C 38.105469 294.667969 38.105469 303.179688 43.308594 308.382812 L 66.175781 331.253906 C 71.378906 336.457031 79.890625 336.453125 85.09375 331.253906 L 94.933594 321.417969 C 100.136719 316.21875 109.695312 314.808594 116.175781 318.289062 L 144.949219 330.144531 C 151.980469 332.304688 157.730469 340.089844 157.730469 347.453125 L 157.730469 361.34375 C 157.730469 368.699219 163.75 374.71875 171.109375 374.71875 L 203.453125 374.71875 C 210.8125 374.71875 216.832031 368.699219 216.832031 361.34375 L 216.832031 347.449219 C 216.832031 340.089844 222.582031 332.304688 229.613281 330.136719 L 258.390625 318.289062 C 264.867188 314.808594 274.433594 316.210938 279.632812 321.417969 L 289.472656 331.253906 C 294.671875 336.457031 303.1875 336.453125 308.386719 331.253906 L 331.257812 308.382812 C 336.457031 303.183594 336.460938 294.667969 331.257812 289.464844 L 321.425781 279.632812 C 316.222656 274.429688 314.816406 264.863281 318.296875 258.382812 L 330.144531 229.609375 C 332.304688 222.578125 340.09375 216.828125 347.457031 216.828125 Z M 187.277344 264.390625 C 144.6875 264.390625 110.164062 229.863281 110.164062 187.277344 C 110.164062 144.683594 144.6875 110.160156 187.277344 110.160156 C 229.863281 110.160156 264.394531 144.683594 264.394531 187.277344 C 264.394531 229.863281 229.863281 264.390625 187.277344 264.390625 Z M 187.277344 264.390625 " fill-opacity="1" fill-rule="nonzero"/></svg>