<svg xmlns="http://www.w3.org/2000/svg" xmlns:xlink="http://www.w3.org/1999/xlink" width="500" zoomAndPan="magnify" viewBox="0 0 375 374.999991" height="500" preserveAspectRatio="xMidYMid meet" version="1.0"><defs><clipPath id="af2c6218e0"><path d="M 5.796875 0 L 369.546875 0 L 369.546875 375 L 5.796875 375 Z M 5.796875 0 " clip-rule="nonzero"/></clipPath></defs><g clip-path="url(#af2c6218e0)"><path fill="#42b124" d="M 285.335938 335.042969 L 285.335938 351.492188 C 285.335938 364.417969 295.832031 374.914062 308.757812 374.914062 C 321.683594 374.914062 332.175781 364.417969 332.175781 351.492188 L 332.175781 283.652344 C 332.175781 283.574219 332.175781 283.492188 332.171875 283.417969 C 332.101562 276.820312 329.265625 270.292969 323.828125 265.726562 C 319.5 262.089844 314.234375 260.285156 308.984375 260.234375 C 308.910156 260.234375 308.832031 260.234375 308.757812 260.234375 L 240.917969 260.234375 C 227.992188 260.234375 217.496094 270.726562 217.496094 283.652344 C 217.496094 295.65625 226.542969 305.5625 238.183594 306.914062 C 222.542969 313.265625 205.449219 316.765625 187.542969 316.765625 C 113.101562 316.765625 52.667969 256.332031 52.667969 181.894531 C 52.667969 168.96875 42.175781 158.472656 29.25 158.472656 C 16.324219 158.472656 5.828125 168.96875 5.828125 181.894531 C 5.828125 282.183594 87.253906 363.605469 187.542969 363.605469 C 223.535156 363.605469 257.101562 353.125 285.335938 335.042969 Z M 42.910156 91.679688 C 42.980469 98.273438 45.816406 104.796875 51.253906 109.367188 C 55.582031 113.007812 60.847656 114.808594 66.097656 114.855469 C 66.171875 114.859375 66.25 114.863281 66.324219 114.863281 L 134.164062 114.863281 C 147.089844 114.863281 157.589844 104.367188 157.589844 91.441406 C 157.589844 79.4375 148.539062 69.53125 136.898438 68.175781 C 152.539062 61.824219 169.636719 58.328125 187.542969 58.328125 C 261.980469 58.328125 322.414062 118.761719 322.414062 193.199219 C 322.414062 206.125 332.90625 216.621094 345.835938 216.621094 C 358.761719 216.621094 369.253906 206.125 369.253906 193.199219 C 369.253906 92.910156 287.832031 11.488281 187.542969 11.488281 C 151.546875 11.488281 117.980469 21.972656 89.75 40.050781 L 89.75 23.601562 C 89.75 10.675781 79.253906 0.179688 66.324219 0.179688 C 53.398438 0.179688 42.90625 10.675781 42.90625 23.601562 L 42.90625 91.441406 C 42.90625 91.519531 42.90625 91.601562 42.910156 91.679688 Z M 42.910156 91.679688 " fill-opacity="1" fill-rule="evenodd"/></g></svg>