<svg xmlns="http://www.w3.org/2000/svg" xmlns:xlink="http://www.w3.org/1999/xlink" width="500" zoomAndPan="magnify" viewBox="0 0 375 374.999991" height="500" preserveAspectRatio="xMidYMid meet" version="1.0"><defs><clipPath id="acebac5e0a"><path d="M 54.507812 67.082031 L 320.757812 67.082031 L 320.757812 307.832031 L 54.507812 307.832031 Z M 54.507812 67.082031 " clip-rule="nonzero"/></clipPath></defs><g clip-path="url(#acebac5e0a)"><path fill="#42b124" d="M 54.734375 221.460938 C 54.734375 206.949219 63.378906 209.730469 63.378906 198.921875 C 63.378906 186.261719 56.585938 189.042969 56.585938 178.234375 C 56.585938 172.679688 65.847656 167.738281 76.964844 167.738281 C 80.359375 186.882812 84.375 192.4375 96.414062 198.304688 L 121.117188 232.269531 C 93.328125 221.460938 85.609375 221.460938 54.734375 221.460938 Z M 81.902344 280.433594 C 81.902344 272.714844 87.460938 267.46875 93.636719 267.46875 C 106.914062 267.46875 124.820312 263.144531 141.183594 253.882812 L 145.507812 269.320312 L 154.152344 275.804688 C 124.203125 287.84375 126.054688 307.914062 111.851562 307.914062 C 99.8125 307.914062 108.457031 286.300781 81.902344 280.433594 Z M 104.132812 193.671875 L 114.324219 178.851562 L 107.222656 121.117188 C 107.222656 93.328125 153.535156 67.082031 187.5 67.082031 C 221.460938 67.082031 267.777344 93.328125 267.777344 121.117188 L 260.675781 178.851562 L 270.863281 193.671875 L 244.003906 230.726562 L 227.019531 233.8125 L 224.550781 247.089844 L 201.394531 260.058594 L 173.605469 260.058594 L 150.449219 247.089844 L 147.976562 233.8125 L 130.996094 230.726562 Z M 128.835938 184.101562 C 128.835938 201.394531 132.847656 210.964844 140.257812 210.964844 C 157.550781 210.964844 177 202.628906 177 185.953125 C 177 176.382812 149.523438 168.972656 145.199219 168.972656 C 133.773438 168.972656 128.835938 173.914062 128.835938 184.101562 Z M 150.449219 252.648438 L 159.710938 257.894531 L 159.710938 268.394531 L 153.535156 263.761719 Z M 162.796875 269.9375 L 162.796875 259.75 L 172.0625 264.378906 L 172.0625 274.878906 Z M 173.605469 229.796875 L 179.78125 234.429688 L 187.5 229.796875 L 195.21875 234.429688 L 201.394531 229.796875 L 187.5 205.097656 Z M 175.148438 275.496094 L 175.148438 264.6875 L 185.957031 264.6875 L 185.957031 275.496094 Z M 189.042969 275.496094 L 189.042969 264.6875 L 199.847656 264.6875 L 199.847656 275.496094 Z M 197.996094 185.953125 C 197.996094 202.628906 217.449219 210.964844 234.738281 210.964844 C 242.148438 210.964844 246.164062 201.394531 246.164062 184.101562 C 246.164062 173.914062 241.222656 168.972656 229.800781 168.972656 C 225.476562 168.972656 197.996094 176.382812 197.996094 185.953125 Z M 202.9375 274.878906 L 202.9375 264.378906 L 212.199219 259.75 L 212.199219 269.9375 Z M 215.289062 268.394531 L 215.289062 257.894531 L 224.550781 252.648438 L 221.460938 263.761719 Z M 220.84375 275.804688 L 229.492188 269.320312 L 233.8125 253.882812 C 250.175781 263.144531 268.085938 267.46875 281.363281 267.46875 C 287.535156 267.46875 293.09375 272.714844 293.09375 280.433594 C 266.542969 286.300781 275.1875 307.914062 263.144531 307.914062 C 248.941406 307.914062 250.792969 287.84375 220.84375 275.804688 Z M 253.882812 232.269531 L 278.582031 198.304688 C 290.625 192.4375 294.636719 186.882812 298.035156 167.738281 C 309.148438 167.738281 318.414062 172.679688 318.414062 178.234375 C 318.414062 189.042969 311.621094 186.261719 311.621094 198.921875 C 311.621094 209.730469 320.265625 206.949219 320.265625 221.460938 C 289.390625 221.460938 281.671875 221.460938 253.882812 232.269531 Z M 253.882812 232.269531 " fill-opacity="1" fill-rule="nonzero"/></g></svg>